<svg xmlns="http://www.w3.org/2000/svg" width="190" height="86" viewBox="0 0 190 86">
  <g fill="none" stroke="#4f3a9b" stroke-width="1.5" opacity="0.88">
    <path d="M16 58 C31 44, 38 72, 56 50 S88 48, 96 62" stroke-width="2.1"/>
    <path d="M25 63 C41 41, 47 59, 62 40" stroke-width="1.4"/>
    <path d="M42 65 C64 47, 75 48, 93 56" stroke-width="1.4"/>
    <circle cx="138" cy="43" r="36" />
    <circle cx="138" cy="43" r="31" />
    <circle cx="138" cy="43" r="19" stroke-dasharray="2 2" />
    <path d="M125 49 C133 37, 143 33, 154 24" stroke-width="2"/>
    <path d="M121 56 C134 48, 148 50, 160 56" stroke-width="1"/>
  </g>
  <g fill="#4f3a9b" font-family="Arial, sans-serif" font-size="5.5" opacity="0.9">
    <text x="106" y="20" transform="rotate(-18 106 20)">центр развития</text>
    <text x="106" y="27" transform="rotate(-18 106 27)">талантов</text>
    <text x="123" y="45" font-size="7" font-weight="700">IT-ПЛАНЕТА</text>
    <text x="110" y="67" transform="rotate(10 110 67)">it-planet.org</text>
  </g>
</svg>